HIERARCHY
ROOT ui
{
	 OFFSET 0 0 0
	 CHANNELS 3 XPosition YPosition Z Position
	 EndSite
	 {
	 OFFSET 0 -1 0
	 }
}
ROOT li
{
	 OFFSET 0 0 0
	 CHANNELS 3 XPosition YPosition Z Position
	 EndSite
	 {
	 OFFSET 0 -1 0
	 }
}
ROOT ul
{
	 OFFSET 0 0 0
	 CHANNELS 3 XPosition YPosition Z Position
	 EndSite
	 {
	 OFFSET 0 -1 0
	 }
}
ROOT ll
{
	 OFFSET 0 0 0
	 CHANNELS 3 XPosition YPosition Z Position
	 EndSite
	 {
	 OFFSET 0 -1 0
	 }
}
ROOT tt
{
	 OFFSET 0 0 0
	 CHANNELS 3 XPosition YPosition Z Position
	 EndSite
	 {
	 OFFSET 0 -1 0
	 }
}
ROOT tb
{
	 OFFSET 0 0 0
	 CHANNELS 3 XPosition YPosition Z Position
	 EndSite
	 {
	 OFFSET 0 -1 0
	 }
}
ROOT td
{
	 OFFSET 0 0 0
	 CHANNELS 3 XPosition YPosition Z Position
	 EndSite
	 {
	 OFFSET 0 -1 0
	 }
}
ROOT v
{
	 OFFSET 0 0 0
	 CHANNELS 3 XPosition YPosition Z Position
	 EndSite
	 {
	 OFFSET 0 -1 0
	 }
}
ROOT bn
{
	 OFFSET 0 0 0
	 CHANNELS 3 XPosition YPosition Z Position
	 EndSite
	 {
	 OFFSET 0 -1 0
	 }
}
MOTION
Frames: 32
Frame Time: 0.002
0.005531857967376709	0.0033203508853912353	0		0.6231052856445313	-2.8642255859375	0		-0.8613703002929688	0.23997540283203125	0		-0.1270608673095703	-3.542219482421875	0		2.1582470703125	-1.820733154296875	0		3.70492529296875	-1.035418701171875	0		4.90130712890625	-0.7914520263671875	0		5.904060546875	0.30118951416015627	0		-4.91225004196167E-4	5.96293798828125	0		
-0.019432729721069335	-0.011745408058166503	0		0.5684114379882812	-2.8578935546875	0		-0.8611346435546875	0.23957687377929687	0		-0.12889706420898436	-3.546594482421875	0		2.160512939453125	-1.8181734619140626	0		3.70515478515625	-1.03583935546875	0		4.89671240234375	-0.7788125610351563	0		5.90429638671875	0.3007581481933594	0		-2.143310010433197E-4	5.96353515625	0		
0.028971885681152342	-7.961130142211914E-4	0		0.5966025390625	-2.86167724609375	0		-0.8559532470703125	0.23410928344726561	0		-0.11576168823242187	-3.5541728515625	0		2.1626845703125	-1.823615478515625	0		3.715718994140625	-1.0123989868164063	0		4.88905126953125	-0.7721347045898438	0		5.9045322265625	0.29932437133789064	0		0.016195432662963867	5.9729140625	0		
-0.016666934967041015	0.00641937780380249	0		0.5807994384765625	-2.865866455078125	0		-0.8556890869140625	0.23371168518066407	0		-0.11247575378417969	-3.551614501953125	0		2.172112548828125	-1.811149658203125	0		3.700018798828125	-1.0096038818359374	0		4.89339111328125	-0.7666142578125	0		5.89579736328125	0.29901516723632815	0		0.015514100074768066	5.97452587890625	0		
0.037607036590576175	0.005301436901092529	0		0.6240745849609375	-2.86583935546875	0		-0.8554092407226562	0.2333233184814453	0		-0.11424005126953125	-3.553979248046875	0		2.15645166015625	-1.80633740234375	0		3.7164931640625	-0.9952296752929688	0		4.88778759765625	-0.7579493408203125	0		5.891970703125	0.2906500854492188	0		0.015820528984069823	5.97413330078125	0		
-0.016094791412353517	0.005649570941925049	0		0.59537158203125	-2.864830078125	0		-0.8591683349609375	0.2290034942626953	0		-0.12788014221191407	-3.548168701171875	0		2.182600341796875	-1.817072998046875	0		3.702796875	-0.9944351806640624	0		4.88017236328125	-0.7512410888671875	0		5.89226513671875	0.2902471008300781	0		9.795339703559875E-4	5.96195849609375	0		
0.027057418823242186	-0.006286477088928223	0		0.593637939453125	-2.8671640625	0		-0.8588634643554688	0.2286479034423828	0		-0.11773853302001953	-3.55966064453125	0		2.17104638671875	-1.80627978515625	0		3.699177978515625	-0.9887549438476563	0		4.8804736328125	-0.75161865234375	0		5.8925703125	0.28986569213867186	0		0.03162634086608887	5.98519384765625	0		
-0.015481802940368652	0.0049541621208190915	0		0.5788853149414063	-2.871300537109375	0		-0.8536080322265625	0.22424708557128906	0		-0.11541413116455078	-3.55802392578125	0		2.180295166015625	-1.8107440185546875	0		3.682525634765625	-0.9858749389648438	0		4.87595556640625	-0.7389046630859375	0		5.88875927734375	0.28056500244140625	0		0.0177672119140625	5.971046875	0		
0.011822571754455566	0.004279795169830322	0		0.5822388916015625	-2.86765380859375	0		-0.8482473754882812	0.22787030029296876	0		-0.11002201843261719	-3.55140283203125	0		2.156895751953125	-1.788739501953125	0		3.700272705078125	-0.953426513671875	0		4.87447607421875	-0.723201904296875	0		5.88906689453125	0.2802398986816406	0		0.033248214721679686	5.98253271484375	0		
-0.01487791919708252	0.004360063076019287	0		0.596557373046875	-2.866126220703125	0		-0.8579490356445313	0.22772312927246094	0		-0.11278377532958984	-3.55564501953125	0		2.1882412109375	-1.785443115234375	0		3.662638916015625	-0.9482041625976563	0		4.87477197265625	-0.7234921264648437	0		5.8852568359375	0.27200271606445314	0		0.015448144912719727	5.9744921875	0		
0.008346128463745116	-2.0194600522518158E-4	0		0.5678516845703125	-2.8649892578125	0		-0.8627223510742188	0.22353834533691405	0		-0.1264239273071289	-3.5497099609375	0		2.15360400390625	-1.7792269287109375	0		3.67911865234375	-0.9336759033203125	0		4.833458984375	-0.6931854858398437	0		5.863431640625	0.2640430908203125	0		0.016718053817749025	5.97322607421875	0		
-0.01839529609680176	-6.042100116610527E-5	0		0.5930391235351562	-2.870546875	0		-0.8575205688476563	0.21924942016601562	0		-0.12616671752929687	-3.549931640625	0		2.155914306640625	-1.775475341796875	0		3.683442138671875	-0.9289508056640625	0		4.8408759765625	-0.6815010986328125	0		5.87168701171875	0.2637154541015625	0		0.015985928535461425	5.974017578125	0		
0.004788925170898437	-0.003559325933456421	0		0.5880947875976562	-2.883667236328125	0		-0.8572941284179687	0.2190586700439453	0		-0.11303115844726562	-3.5572958984375	0		2.156371826171875	-1.7586640625	0		3.674101318359375	-0.8970044555664063	0		4.83727880859375	-0.6686323852539062	0		5.86802099609375	0.27158584594726565	0		0.01719189643859863	5.972814453125	0		
-0.013922301292419434	0.0035388829708099365	0		0.607399658203125	-2.8760791015625	0		-0.8571017456054687	0.21890011596679687	0		-0.1206417236328125	-3.543346435546875	0		2.1667421875	-1.745951904296875	0		3.66926953125	-0.8990860595703125	0		4.83747314453125	-0.6687789306640625	0		5.873091796875	0.26237506103515623	0		0.033518699645996096	5.98344189453125	0		
-0.013765838623046875	0.0034161241054534914	0		0.5806076049804687	-2.872837158203125	0		-0.8569459228515625	0.21877481079101563	0		-0.13235243225097656	-3.53430908203125	0		2.162281005859375	-1.71800341796875	0		3.668805419921875	-0.871186767578125	0		4.8297265625	-0.661780029296875	0		5.868369140625	0.27133648681640626	0		0.0175106201171875	5.97253515625	0		
0.009297722816467286	-9.807549715042114E-4	0		0.6315991821289062	-2.883607666015625	0		-0.86593408203125	0.21080523681640626	0		-0.12034134674072265	-3.54355810546875	0		2.124450927734375	-1.714572265625	0		3.649051025390625	-0.8619923706054687	0		4.8298486328125	-0.6618492431640625	0		5.86438037109375	0.2633258361816406	0		0.01663381576538086	5.97446044921875	0		
-0.013562955856323243	0.0032750680446624754	0		0.5747550659179688	-2.87889208984375	0		-0.8699049682617187	0.2068023223876953	0		-0.13211921691894532	-3.534451171875	0		2.16272705078125	-1.7011273193359375	0		3.640421630859375	-0.8409091796875	0		4.8251103515625	-0.6488135375976563	0		5.86834130859375	0.25424742126464844	0		0.016675838470458983	5.97340771484375	0		
0.009430747985839844	-0.0010517179965972901	0		0.6058308715820313	-2.878323486328125	0		-0.8599783935546875	0.19764598083496093	0		-0.11814578247070312	-3.5416572265625	0		2.13804345703125	-1.6817994384765624	0		3.64354248046875	-0.8359482421875	0		4.81725830078125	-0.6416986083984375	0		5.86838916015625	0.2542612152099609	0		0.03481221389770508	5.9821474609375	0		
-5.638579726219178E-4	-0.0019008159637451173	0		0.5918541259765625	-2.879115234375	0		-0.8549083862304687	0.2015897216796875	0		-0.10897283172607422	-3.531763427734375	0		2.140353271484375	-1.6607987060546876	0		3.63119775390625	-0.7887392578125	0		4.807576171875	-0.6195205078125	0		5.864513671875	0.26236639404296874	0		0.018647438049316407	5.9713798828125	0		
0.013490265846252441	0.0029615249633789063	0		0.59802197265625	-2.867142333984375	0		-0.86985302734375	0.20683563232421875	0		-0.12387933349609374	-3.5255126953125	0		2.091638916015625	-1.639078125	0		3.61634033203125	-0.7774642333984375	0		4.80372998046875	-0.6073853759765625	0		5.8552861328125	0.24657810974121094	0		0.016623239517211914	5.97345703125	0		
-0.013547699928283691	0.003408340930938721	0		0.569017578125	-2.86566455078125	0		-0.8741761474609375	0.1859696502685547	0		-0.12085517120361328	-3.522469482421875	0		2.098743408203125	-1.6290738525390625	0		3.610413330078125	-0.7692747192382813	0		4.76592529296875	-0.5897591552734375	0		5.84624462890625	0.24682417297363282	0		0.016541236877441405	5.9735419921875	0		
0.005288101196289062	-0.003728179931640625	0		0.5939002685546875	-2.870877685546875	0		-0.87424609375	0.18608106994628906	0		-0.10799354553222656	-3.5295263671875	0		2.075849365234375	-1.6166337890625	0		3.602618896484375	-0.7490256958007813	0		4.76586083984375	-0.5896072998046875	0		5.84617431640625	0.24698377990722656	0		0.0012702480554580688	5.96186181640625	0		
-0.01776568603515625	-2.702929973602295E-4	0		0.568894287109375	-2.865388916015625	0		-0.8634651489257813	0.17707804870605467	0		-0.11384906005859376	-3.513298095703125	0		2.085951904296875	-1.6026041259765624	0		3.58018701171875	-0.6995458374023438	0		4.765037109375	-0.5694111938476563	0		5.8509423828125	0.23711004638671876	0		0.03342280960083008	5.9835810546875	0		
0.013163395881652832	0.0034953250885009766	0		0.6096825561523438	-2.873751708984375	0		-0.863588134765625	0.1772530517578125	0		-0.10683871459960938	-3.505212158203125	0		2.056340087890625	-1.5650091552734375	0		3.584136962890625	-0.6943925170898437	0		4.76313427734375	-0.553169921875	0		5.85493896484375	0.24627947998046876	0		0.017111721038818358	5.97297802734375	0		
-0.013978781700134278	0.0040685291290283206	0		0.5976533813476562	-2.866375732421875	0		-0.872826904296875	0.17057965087890625	0		-0.10390485382080078	-3.501041748046875	0		2.054394287109375	-1.5507572021484375	0		3.577506591796875	-0.6560648193359375	0		4.7331298828125	-0.5425233764648437	0		5.845806640625	0.24765357971191407	0		0.016924278259277344	5.973189453125	0		
0.012854582786560058	0.0039478099346160886	0		0.5975091552734375	-2.866130859375	0		-0.8820984497070312	0.162935302734375	0		-0.10100481414794922	-3.49784228515625	0		2.05242822265625	-1.536476806640625	0		3.575521240234375	-0.6427737426757812	0		4.734263671875	-0.5202651977539062	0		5.85052001953125	0.2388687744140625	0		0.01671851921081543	5.97343017578125	0		
-0.02546934700012207	-0.006275743007659912	0		0.5973478393554688	-2.86585986328125	0		-0.8873328247070312	0.15926393127441407	0		-0.09609552001953126	-3.49264306640625	0		2.0465931396484374	-1.5111180419921875	0		3.5268310546875	-0.6058308715820313	0		4.72208837890625	-0.5198062133789062	0		5.84621826171875	0.23022894287109374	0		0.017485408782958983	5.9726845703125	0		
0.008429518699645996	5.603569746017456E-4	0		0.58112158203125	-2.8693505859375	0		-0.876646728515625	0.15040362548828126	0		-0.18699046325683594	-3.4711376953125	0		2.05454345703125	-1.5009219970703125	0		3.533776123046875	-0.5956124877929687	0		4.700208984375	-0.496194091796875	0		5.8501318359375	0.23850175476074217	0		0.018230457305908204	5.970962890625	0		
0.016324689865112305	0.007765862941741943	0		0.6041112060546875	-2.856343017578125	0		-0.8659664306640625	0.14156565856933595	0		-0.08017878723144531	-3.47225537109375	0		2.054768310546875	-1.4696007080078124	0		3.526250244140625	-0.5451779174804687	0		4.69340234375	-0.4667646484375	0		5.8499326171875	0.23884649658203125	0		0.01898693084716797	5.9702626953125	0		
0.01208631134033203	0.005151518821716309	0		0.57492822265625	-2.855620849609375	0		-0.8852575073242187	0.13514797973632814	0		-0.08920046997070312	-3.4598046875	0		2.0438177490234377	-1.451114013671875	0		3.515255615234375	-0.529684326171875	0		4.681447265625	-0.44825262451171877	0		5.84973291015625	0.23920513916015626	0		0.016801252365112304	5.97362109375	0		
0.011888998985290528	0.005498572826385498	0		0.6006718139648437	-2.86061865234375	0		-0.893668212890625	0.11960015106201172	0		-0.08430602264404297	-3.453525390625	0		1.9969501953125	-1.426134521484375	0		3.467545166015625	-0.49268731689453127	0		4.65546728515625	-0.43154354858398436	0		5.84542822265625	0.23162667846679688	0		0.0014108699560165406	5.96116943359375	0		
-0.02645072364807129	-0.004636031150817871	0		0.5626454467773437	-2.84775390625	0		-0.902970703125	0.11207612609863281	0		-0.18711167907714843	-3.4237958984375	0		1.9890380859375	-1.4046680908203124	0		3.460604248046875	-0.4732308349609375	0		4.62848828125	-0.4148171691894531	0		5.84912451171875	0.22394395446777343	0		0.0012014930248260497	5.9615263671875	0		
